<svg id="Иконка_помощь_" data-name="Иконка (помощь)" xmlns="http://www.w3.org/2000/svg" width="18" height="18" viewBox="0 0 18 18">
  <g id="Group_634" data-name="Group 634">
    <g id="Group_633" data-name="Group 633">
      <path id="Path_2240" data-name="Path 2240" d="M222.6,343.22a.944.944,0,0,0,0,1.887.944.944,0,0,0,0-1.887Z" transform="translate(-213.874 -331.154)" fill="#fff"/>
      <path id="Path_2241" data-name="Path 2241" d="M186.436,140c-1.654,0-2.414.98-2.414,1.642a.7.7,0,0,0,.735.7c.662,0,.392-.944,1.642-.944.613,0,1.1.27,1.1.833,0,.662-.686,1.042-1.091,1.385a2.243,2.243,0,0,0-.821,1.863c0,.637.172.821.674.821.6,0,.723-.27.723-.5a1.539,1.539,0,0,1,.686-1.532,3.137,3.137,0,0,0,1.373-2.243C189.046,140.872,188,140,186.436,140Z" transform="translate(-177.552 -135.08)" fill="#fff"/>
      <path id="Path_2242" data-name="Path 2242" d="M9,0A9,9,0,0,0,0,9v8.3a.7.7,0,0,0,.7.7H9A9,9,0,0,0,9,0ZM9,16.594H1.406V9A7.594,7.594,0,1,1,9,16.594Z" fill="#fff"/>
    </g>
  </g>
</svg>
