<svg xmlns="http://www.w3.org/2000/svg" width="21" height="18" viewBox="0 0 21 18">
  <g id="иконка_банкомат_" data-name="иконка (банкомат)" transform="translate(0 -28.176)">
    <path id="Path_2245" data-name="Path 2245" d="M228.7,254.153a1.929,1.929,0,1,1-2.727,0,1.929,1.929,0,0,1,2.727,0" transform="translate(-214.863 -215.127)" fill="#fff"/>
    <path id="Path_2246" data-name="Path 2246" d="M20.344,28.176H.656A.649.649,0,0,0,0,28.819v7.714a.649.649,0,0,0,.656.643H2.625v7.071a1.951,1.951,0,0,0,1.969,1.929H16.406a1.951,1.951,0,0,0,1.969-1.929V37.176h1.969A.649.649,0,0,0,21,36.533V28.819a.649.649,0,0,0-.656-.643Zm-.656,7.714H18.375V30.747H17.062v13.5a.65.65,0,0,1-.656.643H7.875V30.747H6.563V44.89H4.594a.65.65,0,0,1-.656-.643v-13.5H2.625V35.89H1.312V29.462H19.687V35.89Z" transform="translate(0)" fill="#fff"/>
  </g>
</svg>
