<svg xmlns="http://www.w3.org/2000/svg" width="19.313" height="30" viewBox="0 0 19.313 30">
  <g id="Group_608" data-name="Group 608" transform="translate(-11.4)">
    <path id="Path_2150" data-name="Path 2150" d="M28.109,0,11.4,1.484V3.3H28.109V0Z" fill="#01815e"/>
    <path id="Path_2151" data-name="Path 2151" d="M11.4,10.1V35.264H30.712V10.1ZM27.009,31.763H15.1V30.269H27.009Zm-5.953-5.042a6.467,6.467,0,1,1,6.422-6.443A6.5,6.5,0,0,1,21.056,26.721Z" transform="translate(0 -5.264)" fill="#01815e"/>
    <path id="Path_2152" data-name="Path 2152" d="M30.1,27.317a9.217,9.217,0,0,0,.862,4.117,9.356,9.356,0,0,0,.862-4.117,9.217,9.217,0,0,0-.862-4.117A9.356,9.356,0,0,0,30.1,27.317Z" transform="translate(-9.952 -12.41)" fill="#01815e"/>
    <path id="Path_2153" data-name="Path 2153" d="M23.92,24.3a4.661,4.661,0,0,0-.383,6.894,2.4,2.4,0,0,0,.383.335,13.679,13.679,0,0,1-.479-3.639A13.862,13.862,0,0,1,23.92,24.3Z" transform="translate(-5.745 -12.985)" fill="#01815e"/>
    <path id="Path_2154" data-name="Path 2154" d="M38.379,27.891a14.337,14.337,0,0,1-.479,3.687c2.394-1.724,2.2-5.506,0-7.277A13.307,13.307,0,0,1,38.379,27.891Z" transform="translate(-14.104 -12.985)" fill="#01815e"/>
  </g>
</svg>
