<svg xmlns="http://www.w3.org/2000/svg" width="30" height="30" viewBox="0 0 30 30">
  <g id="noun_credit_cards_175504" data-name="noun_credit cards_175504" transform="translate(-9.5 -33.5)">
    <g id="Group_617" data-name="Group 617" transform="translate(9.5 33.5)">
      <path id="Path_2208" data-name="Path 2208" d="M28.592,21.7H6.01a.5.5,0,0,0-.51.512V37.759a.5.5,0,0,0,.51.512H28.592a.5.5,0,0,0,.51-.512V22.148A.494.494,0,0,0,28.592,21.7Zm-13.97,4.862H9.072a.64.64,0,0,1,0-1.28h5.55a.64.64,0,0,1,.638.64A.6.6,0,0,1,14.622,26.562Zm9.313,8.957a1.877,1.877,0,0,1-1.595-.9,1.746,1.746,0,0,1-1.595.9,1.855,1.855,0,0,1,0-3.711,1.877,1.877,0,0,1,1.595.9,1.746,1.746,0,0,1,1.595-.9,1.855,1.855,0,0,1,0,3.711Z" transform="translate(-2.301 -8.271)" fill="#006a4d"/>
      <g id="Group_616" data-name="Group 616" transform="translate(0 0)">
        <path id="Path_2209" data-name="Path 2209" d="M30.5,5.235h0V.5H.5V5.235ZM25.777,2.483h2.234a.64.64,0,0,1,.638.64.687.687,0,0,1-.638.64H25.777a.64.64,0,0,1,0-1.28Zm-5.681,0H22.33a.64.64,0,0,1,.638.64.687.687,0,0,1-.638.64H20.1a.64.64,0,0,1-.638-.64A.687.687,0,0,1,20.1,2.483Z" transform="translate(-0.5 -0.5)" fill="#006a4d"/>
        <path id="Path_2210" data-name="Path 2210" d="M30.5,9.9H.5V22.7H2.351V17.9A1.855,1.855,0,0,1,4.2,16.042H26.8A1.855,1.855,0,0,1,28.649,17.9V22.76H30.5V9.9Z" transform="translate(-0.5 -3.886)" fill="#006a4d"/>
      </g>
    </g>
  </g>
</svg>
