<svg xmlns="http://www.w3.org/2000/svg" width="30" height="30" viewBox="0 0 30 30">
  <g id="noun_budget_accounting_1875527" data-name="noun_budget accounting_1875527" transform="translate(-2.959 -3.1)">
    <g id="Group_590" data-name="Group 590" transform="translate(2.959 3.1)">
      <g id="Group_584" data-name="Group 584" transform="translate(0 25.051)">
        <path id="Path_2076" data-name="Path 2076" d="M2.979,53.1v1.3a1.9,1.9,0,0,0,1.9,1.9h12.5V53.1Z" transform="translate(-2.959 -53.1)" fill="#006a4d"/>
      </g>
      <g id="Group_585" data-name="Group 585" transform="translate(8.015 3.899)">
        <path id="Path_2077" data-name="Path 2077" d="M19.9,10.9c-.5.05-.9.3-.9.8,0,.55.4.7.9.85Z" transform="translate(-19 -10.9)" fill="#006a4d"/>
      </g>
      <g id="Group_586" data-name="Group 586" transform="translate(9.564 6.912)">
        <path id="Path_2078" data-name="Path 2078" d="M23.1,17.8c0-.55-.45-.75-1-.9v1.75C22.6,18.55,23.1,18.3,23.1,17.8Z" transform="translate(-22.1 -16.9)" fill="#006a4d"/>
      </g>
      <g id="Group_587" data-name="Group 587" transform="translate(2.97 0)">
        <path id="Path_2079" data-name="Path 2079" d="M31.181,15.9V5h0a2.874,2.874,0,0,1,.7-1.9H10.9a2,2,0,0,0-2,2v22H20.29V16.9a1,1,0,0,1,1-1Zm-18.434-8a1.989,1.989,0,0,1,2.1-1.95v-.5h.6v.5a4.372,4.372,0,0,1,2,.7l-.649.9A2.871,2.871,0,0,0,15.444,7V8.8h.05c1.249.3,2.148.7,2.148,2a2,2,0,0,1-2.148,1.95v.7h-.6v-.7a4.2,4.2,0,0,1-2.348-1.05l.7-.85a3.73,3.73,0,0,0,1.649.85V9.849C13.6,9.549,12.747,9.1,12.747,7.9Zm4.9,16H11.648a.5.5,0,0,1,0-1h5.995a.472.472,0,0,1,.5.5A.537.537,0,0,1,17.643,23.9Zm0-3.5H11.648a.5.5,0,0,1,0-1h5.995a.472.472,0,0,1,.5.5A.537.537,0,0,1,17.643,20.4Zm0-3.5H11.648a.5.5,0,0,1,0-1h5.995a.472.472,0,0,1,.5.5A.537.537,0,0,1,17.643,16.9Zm3.4-11.2h6.894a.5.5,0,0,1,0,1H21.04a.472.472,0,0,1-.5-.5A.537.537,0,0,1,21.04,5.7Zm0,3.249h6.894a.5.5,0,0,1,0,1H21.04a.472.472,0,0,1-.5-.5A.537.537,0,0,1,21.04,8.949Zm-.5,3.749a.472.472,0,0,1,.5-.5h6.894a.5.5,0,0,1,0,1H21.04A.5.5,0,0,1,20.54,12.7Z" transform="translate(-8.9 -3.1)" fill="#006a4d"/>
      </g>
      <g id="Group_588" data-name="Group 588" transform="translate(26.201)">
        <path id="Path_2080" data-name="Path 2080" d="M57.3,3.1A1.9,1.9,0,0,0,55.4,5v6.2h3.8V5A1.9,1.9,0,0,0,57.3,3.1Z" transform="translate(-55.4 -3.1)" fill="#006a4d"/>
      </g>
      <g id="Group_589" data-name="Group 589" transform="translate(15.402 13.853)">
        <path id="Path_2081" data-name="Path 2081" d="M47.4,30.7H34.8a1,1,0,0,0-1,1V45.848a1,1,0,0,0,1,1H47.4a1,1,0,0,0,1-1V31.7A1,1,0,0,0,47.4,30.7ZM37.6,45.348h-1a.5.5,0,1,1,0-1h1a.472.472,0,0,1,.5.5A.5.5,0,0,1,37.6,45.348Zm0-3h-1a.5.5,0,0,1,0-1h1a.472.472,0,0,1,.5.5A.5.5,0,0,1,37.6,42.348Zm0-3h-1a.5.5,0,0,1,0-1h1a.472.472,0,0,1,.5.5A.5.5,0,0,1,37.6,39.349Zm4,6h-1a.5.5,0,1,1,0-1h1a.5.5,0,1,1,0,1Zm0-3h-1a.5.5,0,1,1,0-1h1a.5.5,0,1,1,0,1Zm0-3h-1a.5.5,0,1,1,0-1h1a.5.5,0,1,1,0,1Zm4,6h-1a.5.5,0,0,1,0-1h1a.5.5,0,0,1,0,1Zm0-3h-1a.5.5,0,0,1,0-1h1a.5.5,0,0,1,0,1Zm0-3h-1a.5.5,0,0,1,0-1h1a.5.5,0,0,1,0,1Zm.9-3.6H35.7V32.6H46.548v3.15Z" transform="translate(-33.8 -30.7)" fill="#006a4d"/>
      </g>
    </g>
  </g>
</svg>
