<svg xmlns="http://www.w3.org/2000/svg" width="30" height="26" viewBox="0 0 30 26">
  <g id="noun_making_money_1990158" data-name="noun_making money_1990158" transform="translate(-1 -5.9)">
    <g id="Group_595" data-name="Group 595" transform="translate(1 5.9)">
      <g id="Group_591" data-name="Group 591">
        <path id="Path_2121" data-name="Path 2121" d="M31,6.86V26.254a.952.952,0,0,1-.937.96H28.656V11.757A2,2,0,0,0,26.688,9.74H2.875a1.921,1.921,0,0,1,0-3.84H30.063A.952.952,0,0,1,31,6.86Z" transform="translate(-1 -5.9)" fill="#006a4d"/>
      </g>
      <g id="Group_592" data-name="Group 592" transform="translate(1.713 7.981)">
        <path id="Path_2122" data-name="Path 2122" d="M24.491,33.1a7.6,7.6,0,1,0,0,15.169,7.871,7.871,0,0,0,8.091-7.584C32.745,36.437,29.023,33.1,24.491,33.1Z" transform="translate(-16.4 -33.1)" fill="#006a4d"/>
      </g>
      <g id="Group_593" data-name="Group 593" transform="translate(19.481 13.153)">
        <path id="Path_2123" data-name="Path 2123" d="M43,35.595a2.3,2.3,0,0,0,2.295,2.295h4.829V33.3H45.295A2.3,2.3,0,0,0,43,35.595Zm2.486.526a.744.744,0,1,1,0-1.052A.71.71,0,0,1,45.486,36.121Z" transform="translate(-43 -33.3)" fill="#006a4d"/>
      </g>
      <g id="Group_594" data-name="Group 594" transform="translate(0 4.246)">
        <path id="Path_2124" data-name="Path 2124" d="M22.883,29.135a3.3,3.3,0,0,1,0-6.6h4.723V16.273a.949.949,0,0,0-.935-.956H2.87A2.941,2.941,0,0,1,1,14.6V34.442a1.9,1.9,0,0,0,1.87,1.912H26.39a1.171,1.171,0,0,0,1.169-1.2V29.135Zm-5.845-2.582a.576.576,0,0,1-.327.478l-1.45.526a3.341,3.341,0,0,1-.187.478l.655,1.387a.517.517,0,0,1-.094.574l-.982,1.052a.489.489,0,0,1-.561.1l-1.4-.669c-.14.048-.281.143-.421.191l-.514,1.482a.563.563,0,0,1-.468.335h-1.4a.563.563,0,0,1-.468-.335L8.9,30.665a1.643,1.643,0,0,1-.421-.191l-1.4.669a.489.489,0,0,1-.561-.1L5.536,30a.517.517,0,0,1-.094-.574L6.1,28.035a5.026,5.026,0,0,1-.187-.478l-1.45-.526a.576.576,0,0,1-.327-.478V25.119a.576.576,0,0,1,.327-.478l1.45-.526a1.718,1.718,0,0,1,.187-.43L5.442,22.25a.517.517,0,0,1,.094-.574l.982-1a.489.489,0,0,1,.561-.1l1.4.669c.14-.048.281-.143.421-.191l.514-1.482a.563.563,0,0,1,.468-.335h1.4a.563.563,0,0,1,.468.335l.514,1.482a1.643,1.643,0,0,1,.421.191l1.4-.717a.489.489,0,0,1,.561.1l1.029,1a.517.517,0,0,1,.094.574l-.655,1.434c.047.143.14.287.187.43l1.45.526a.576.576,0,0,1,.327.478v1.482Z" transform="translate(-1 -14.6)" fill="#006a4d"/>
      </g>
    </g>
  </g>
</svg>
