<svg xmlns="http://www.w3.org/2000/svg" width="38" height="30" viewBox="0 0 38 30">
  <g id="noun_Mobile_2044940" transform="translate(-6.25 -15.774)">
    <path id="Path_2211" data-name="Path 2211" d="M6.25,75.1a1.265,1.265,0,0,0,1.264,1.263h4.241V73.015H6.25Z" transform="translate(0 -30.587)" fill="#006a4d"/>
    <path id="Path_2212" data-name="Path 2212" d="M65.582,45.005h-.767a.975.975,0,0,0-.393.066.508.508,0,0,0-.187.141.491.491,0,0,0-.088.191,1.628,1.628,0,0,0-.048.409v.368a1.555,1.555,0,0,0,.047.4.494.494,0,0,0,.092.2.53.53,0,0,0,.19.142.993.993,0,0,0,.386.063h.767Z" transform="translate(-31.544 -15.622)" fill="#006a4d"/>
    <path id="Path_2213" data-name="Path 2213" d="M22.683,24.979A2.287,2.287,0,0,0,20.4,27.264v3.093h4.569V27.264A2.288,2.288,0,0,0,22.683,24.979Z" transform="translate(-7.727 -4.933)" fill="#006a4d"/>
    <path id="Path_2214" data-name="Path 2214" d="M19.611,72.338v3.346h.846V71.751h-.846Z" transform="translate(-7.161 -29.91)" fill="#006a4d"/>
    <path id="Path_2215" data-name="Path 2215" d="M24.8,29.075V25.983a3.394,3.394,0,1,0-6.787,0v3.093h.413V25.983a2.981,2.981,0,1,1,5.961,0v3.093Z" transform="translate(-6.302 -3.652)" fill="#006a4d"/>
    <path id="Path_2216" data-name="Path 2216" d="M34.592,71.751H26.1v3.933h9.884V71.751h-1.4Z" transform="translate(-10.879 -29.91)" fill="#006a4d"/>
    <path id="Path_2217" data-name="Path 2217" d="M22.933,71.751v3.933h.775V71.751h-.775Z" transform="translate(-9.094 -29.91)" fill="#006a4d"/>
    <rect id="Rectangle_2526" data-name="Rectangle 2526" width="0.846" height="3.933" transform="translate(14.668 37.196)" fill="#006a4d"/>
    <path id="Path_2218" data-name="Path 2218" d="M24.629,43.507a.6.6,0,0,0-.243,1.145l.206.092v1.365h.076V44.745l.205-.092a.6.6,0,0,0-.244-1.145Z" transform="translate(-9.694 -14.821)" fill="#006a4d"/>
    <path id="Path_2219" data-name="Path 2219" d="M29.4,53.775V51.8h-.845v3.933H29.4Z" transform="translate(-12.159 -19.25)" fill="#006a4d"/>
    <path id="Path_2220" data-name="Path 2220" d="M37.35,61.776h-6.1v3.933h9.883V61.776H37.35Z" transform="translate(-13.699 -24.58)" fill="#006a4d"/>
    <path id="Path_2221" data-name="Path 2221" d="M31.876,53.427v2.307h.775V51.8h-.775v1.626Z" transform="translate(-13.969 -19.25)" fill="#006a4d"/>
    <path id="Path_2222" data-name="Path 2222" d="M24.566,38.411a.345.345,0,0,0-.345-.344H15.145a.345.345,0,0,0-.344.344v6.962a.345.345,0,0,0,.344.345h5.342V43.744h4.078V38.411Zm-4.148,3.845V43.89H18.95V42.257a1.3,1.3,0,1,1,1.468,0Z" transform="translate(-4.583 -11.906)" fill="#006a4d"/>
    <rect id="Rectangle_2527" data-name="Rectangle 2527" width="0.775" height="3.933" transform="translate(16.18 37.196)" fill="#006a4d"/>
    <path id="Path_2223" data-name="Path 2223" d="M68.456,65.709h9.882V61.776H68.456Z" transform="translate(-34.088 -24.58)" fill="#006a4d"/>
    <rect id="Rectangle_2528" data-name="Rectangle 2528" width="9.885" height="3.933" transform="translate(32.063 41.841)" fill="#006a4d"/>
    <path id="Path_2224" data-name="Path 2224" d="M60.324,71.751v3.933H61.1V71.751h-.773Z" transform="translate(-29.475 -29.91)" fill="#006a4d"/>
    <path id="Path_2225" data-name="Path 2225" d="M39.385,51.8H35.046v3.933h9.885V51.8H39.385Z" transform="translate(-15.78 -19.25)" fill="#006a4d"/>
    <path id="Path_2226" data-name="Path 2226" d="M14.142,36.5h1.764V34.532H10.564a1.044,1.044,0,0,1-1.04-1.045V26.5a1.044,1.044,0,0,1,1.04-1.044h.448v-3.1a4.09,4.09,0,1,1,8.179,0v3.1h.449A1.044,1.044,0,0,1,20.681,26.5v5.352h3.273V17.042a1.267,1.267,0,0,0-1.264-1.268H7.515a1.267,1.267,0,0,0-1.264,1.268v24.69h5.5v-.589h2.387V36.5Z" transform="translate(-0.001 0)" fill="#006a4d"/>
    <path id="Path_2227" data-name="Path 2227" d="M70.21,52.192v-.8a1.039,1.039,0,0,0-.082-.418.328.328,0,0,0-.34-.2h-1v2.04h1C70.067,52.808,70.21,52.6,70.21,52.192Z" transform="translate(-34.1 -18.703)" fill="#006a4d"/>
    <rect id="Rectangle_2529" data-name="Rectangle 2529" width="0.847" height="3.933" transform="translate(29.335 41.841)" fill="#006a4d"/>
    <path id="Path_2228" data-name="Path 2228" d="M62.575,49.353h.018a4.728,4.728,0,1,0-.035,0Zm-2.037-1.678v-.7h1.69v-2.04h-.767a1.646,1.646,0,0,1-.674-.125,1.236,1.236,0,0,1-.448-.342A1.179,1.179,0,0,1,60.119,44a2.253,2.253,0,0,1-.067-.563v-.37a2.3,2.3,0,0,1,.069-.575,1.172,1.172,0,0,1,.215-.452,1.219,1.219,0,0,1,.447-.346,1.637,1.637,0,0,1,.681-.128h.767v-.8h.7v.8h1.825v.7H62.927v1.979h1a1.021,1.021,0,0,1,.967.6,1.719,1.719,0,0,1,.151.72v.8c0,.8-.439,1.312-1.12,1.312h-1v.8h-.7v-.8h-1.69Z" transform="translate(-28.402 -12.876)" fill="#006a4d"/>
    <rect id="Rectangle_2530" data-name="Rectangle 2530" width="0.846" height="3.933" transform="translate(31.593 37.196)" fill="#006a4d"/>
    <rect id="Rectangle_2531" data-name="Rectangle 2531" width="0.775" height="3.933" transform="translate(33.106 37.196)" fill="#006a4d"/>
  </g>
</svg>
