<svg xmlns="http://www.w3.org/2000/svg" width="30" height="30" viewBox="0 0 30 30">
  <g id="noun_digital_2264598" transform="translate(-2 -2)">
    <path id="Path_2182" data-name="Path 2182" d="M32.188,15.075a8.736,8.736,0,0,0-6.447,0,8.32,8.32,0,0,0,3.224.578A8.329,8.329,0,0,0,32.188,15.075Z" transform="translate(-11.965 -6.237)" fill="#006a4d"/>
    <path id="Path_2183" data-name="Path 2183" d="M39.874,16.712a4.531,4.531,0,0,1-.623.353,13.668,13.668,0,0,1,1.011,2.521c.845-.077,1.659-.173,2.429-.29A8.764,8.764,0,0,0,39.874,16.712Z" transform="translate(-18.696 -7.379)" fill="#006a4d"/>
    <path id="Path_2184" data-name="Path 2184" d="M33,18.426v2.029c1.09-.01,2.155-.05,3.181-.12a12.448,12.448,0,0,0-.941-2.25A9.919,9.919,0,0,1,33,18.426Z" transform="translate(-15.554 -8.063)" fill="#006a4d"/>
    <path id="Path_2185" data-name="Path 2185" d="M27.762,18.36a9.679,9.679,0,0,1-2.465-.41,12.643,12.643,0,0,0-.973,2.3c1.1.081,2.257.127,3.438.138Z" transform="translate(-11.204 -7.996)" fill="#006a4d"/>
    <path id="Path_2186" data-name="Path 2186" d="M18.079,19.291c.694.106,1.412.2,2.168.273a13.908,13.908,0,0,1,1.063-2.6,4.736,4.736,0,0,1-.42-.246A8.764,8.764,0,0,0,18.079,19.291Z" transform="translate(-8.068 -7.379)" fill="#006a4d"/>
    <path id="Path_2187" data-name="Path 2187" d="M20,51.027c0,1.138.922,1.03,2.06,1.03H30.3c1.138,0,2.06.108,2.06-1.03V50H20Z" transform="translate(-9.18 -24.179)" fill="#006a4d"/>
    <path id="Path_2188" data-name="Path 2188" d="M32.271,56.515V56H23v.515a2.575,2.575,0,0,0,2.575,2.575H29.7A2.575,2.575,0,0,0,32.271,56.515Z" transform="translate(-10.635 -27.09)" fill="#006a4d"/>
    <path id="Path_2189" data-name="Path 2189" d="M22,37.765V38.3H32.3V28H22Zm4.12-8.735h2.06v1.03H26.12ZM27,34.671c-.52-.162-1.391-.434-1.391-1.521a1.543,1.543,0,0,1,1.03-1.45v-.61h1.03v.61a1.543,1.543,0,0,1,1.03,1.45h-1.03a.515.515,0,0,0-1.03,0c0,.286.087.356.667.537.521.163,1.393.434,1.393,1.523a1.543,1.543,0,0,1-1.03,1.45v.61h-1.03v-.61a1.543,1.543,0,0,1-1.03-1.45h1.03a.515.515,0,0,0,1.03,0C27.665,34.923,27.578,34.853,27,34.671Z" transform="translate(-10.15 -13.196)" fill="#006a4d"/>
    <path id="Path_2190" data-name="Path 2190" d="M33,25h3.587c-.039-.2-.087-.386-.132-.577-1.111.08-2.269.126-3.455.136Z" transform="translate(-15.561 -11.217)" fill="#006a4d"/>
    <path id="Path_2191" data-name="Path 2191" d="M16.108,23.57a8.757,8.757,0,0,0-.916,2.833q1.139.231,2.476.4V25.615a1.028,1.028,0,0,1,.767-.992h0c.043-.245.092-.486.143-.725C17.713,23.813,16.891,23.7,16.108,23.57Z" transform="translate(-6.62 -10.823)" fill="#006a4d"/>
    <path id="Path_2192" data-name="Path 2192" d="M41.865,25.043h.006a1.03,1.03,0,0,1,1.03,1.03v1.186q1.334-.165,2.476-.4a8.759,8.759,0,0,0-.916-2.834c-.861.142-1.769.262-2.728.353Q41.8,24.7,41.865,25.043Z" transform="translate(-19.947 -11.052)" fill="#006a4d"/>
    <path id="Path_2193" data-name="Path 2193" d="M23.526,24.982h3.849v-.44c-1.277-.011-2.524-.062-3.714-.154C23.616,24.585,23.565,24.779,23.526,24.982Z" transform="translate(-10.809 -11.201)" fill="#006a4d"/>
    <path id="Path_2194" data-name="Path 2194" d="M46.566,31.534c-.791.156-1.649.29-2.566.4v3.1c.717-.089,1.4-.2,2.043-.318a8.675,8.675,0,0,0,.533-2.99C46.575,31.664,46.567,31.6,46.566,31.534Z" transform="translate(-21.057 -14.824)" fill="#006a4d"/>
    <path id="Path_2195" data-name="Path 2195" d="M17.575,32.479c-.919-.111-1.777-.246-2.566-.4,0,.066-.009.13-.009.2a8.678,8.678,0,0,0,.533,2.99c.646.121,1.326.228,2.043.318Z" transform="translate(-6.518 -15.096)" fill="#006a4d"/>
    <path id="Path_2196" data-name="Path 2196" d="M44,40.148v1.828a8.759,8.759,0,0,0,1.534-2.049C45.038,40.008,44.53,40.084,44,40.148Z" transform="translate(-21.033 -19.004)" fill="#006a4d"/>
    <path id="Path_2197" data-name="Path 2197" d="M18.556,40.69c-.53-.064-1.038-.14-1.534-.221a8.758,8.758,0,0,0,1.534,2.049Z" transform="translate(-7.523 -19.276)" fill="#006a4d"/>
    <path id="Path_2198" data-name="Path 2198" d="M10.774,9.094l1.316.877v1.785h1.03V9.7a.516.516,0,0,0-.229-.429L11.575,8.39V7.048a2.06,2.06,0,1,0-1.03,0V8.665A.516.516,0,0,0,10.774,9.094ZM10.03,5.06a1.03,1.03,0,1,1,1.03,1.03A1.03,1.03,0,0,1,10.03,5.06Z" transform="translate(-3.395 -0.485)" fill="#006a4d"/>
    <path id="Path_2199" data-name="Path 2199" d="M30.575,7.15v-1.1a2.06,2.06,0,1,0-1.03,0v1.1ZM29.03,4.06a1.03,1.03,0,1,1,1.03,1.03A1.03,1.03,0,0,1,29.03,4.06Z" transform="translate(-13.06)" fill="#006a4d"/>
    <path id="Path_2200" data-name="Path 2200" d="M48.06,2a2.056,2.056,0,0,0-.515,4.048V8.482l-.879.879a.514.514,0,0,0-.151.364v1.545h1.03V9.939l.879-.879a.514.514,0,0,0,.151-.364V6.048A2.056,2.056,0,0,0,48.06,2Zm0,3.09a1.03,1.03,0,1,1,1.03-1.03A1.03,1.03,0,0,1,48.06,5.09Z" transform="translate(-22.241)" fill="#006a4d"/>
    <path id="Path_2201" data-name="Path 2201" d="M55.575,17a2.056,2.056,0,0,0-.515,4.048v3.163H53v1.03h2.575a.515.515,0,0,0,.515-.515V21.048A2.056,2.056,0,0,0,55.575,17Zm0,3.09a1.03,1.03,0,1,1,1.03-1.03A1.03,1.03,0,0,1,55.575,20.09Z" transform="translate(-25.635 -7.582)" fill="#006a4d"/>
    <path id="Path_2202" data-name="Path 2202" d="M50.545,49.665a2.06,2.06,0,1,0,2.338-2.032l-.809-3.243a.515.515,0,0,0-.5-.39H49v1.03h2.173l.679,2.722A2.057,2.057,0,0,0,50.545,49.665Zm2.06-1.03a1.03,1.03,0,1,1-1.03,1.03A1.03,1.03,0,0,1,52.605,48.635Z" transform="translate(-23.696 -21.271)" fill="#006a4d"/>
    <path id="Path_2203" data-name="Path 2203" d="M6.591,44.39l-.809,3.243a2.049,2.049,0,1,0,1.032.119l.678-2.722H9.665V44H7.09A.515.515,0,0,0,6.591,44.39Zm.5,5.275a1.03,1.03,0,1,1-1.03-1.03A1.03,1.03,0,0,1,7.09,49.665Z" transform="translate(-0.97 -21.271)" fill="#006a4d"/>
    <path id="Path_2204" data-name="Path 2204" d="M3.545,22.048V24.7a.515.515,0,0,0,.515.515H6.635V24.18H4.575V22.048a2.06,2.06,0,1,0-1.03,0ZM4.06,19.03a1.03,1.03,0,1,1-1.03,1.03A1.03,1.03,0,0,1,4.06,19.03Z" transform="translate(0 -8.073)" fill="#006a4d"/>
  </g>
</svg>
