<svg xmlns="http://www.w3.org/2000/svg" width="30" height="30" viewBox="0 0 30 30">
  <g id="noun_finance_2261767" transform="translate(-10.993 -8.242)">
    <path id="Path_2114" data-name="Path 2114" d="M20.485,83.193a.659.659,0,0,1,.657-.657H23.1a.659.659,0,0,1,.657.657v9.532a.659.659,0,0,1-.657.657H21.142a.659.659,0,0,1-.657-.657Z" transform="translate(-8.245 -64.639)" fill="#006a4d"/>
    <path id="Path_2115" data-name="Path 2115" d="M162.608,83.193a.659.659,0,0,1,.657-.657h1.955a.659.659,0,0,1,.657.657v2.815a.659.659,0,0,1-.657.657h-1.955a.659.659,0,0,1-.657-.657Z" transform="translate(-132.121 -64.612)" fill="#006a4d"/>
    <path id="Path_2116" data-name="Path 2116" d="M114.5,83.193a.659.659,0,0,1,.657-.657h1.955a.659.659,0,0,1,.657.657v2.815a.659.659,0,0,1-.657.657h-1.955a.659.659,0,0,1-.657-.657Z" transform="translate(-90.194 -64.612)" fill="#006a4d"/>
    <path id="Path_2117" data-name="Path 2117" d="M66.385,83.193a.659.659,0,0,1,.657-.657H69a.659.659,0,0,1,.657.657v9.532a.659.659,0,0,1-.657.657H67.042a.659.659,0,0,1-.657-.657Z" transform="translate(-48.27 -64.639)" fill="#006a4d"/>
    <path id="Path_2118" data-name="Path 2118" d="M11,183.636a.659.659,0,0,1,.657-.657h9.256a.659.659,0,0,1,.657.657V185.8a.659.659,0,0,1-.657.657H11.657A.659.659,0,0,1,11,185.8Z" transform="translate(-0.006 -151.991)" fill="#006a4d"/>
    <path id="Path_2119" data-name="Path 2119" d="M25.755,8.787a4.4,4.4,0,0,0-1.172-.545l-2.854.017a4.394,4.394,0,0,0-1.165.56L11.181,15.59c-.293.211-.237.385.124.385L35.352,16c.361,0,.415-.169.12-.377Z" fill="#006a4d"/>
    <path id="Path_2120" data-name="Path 2120" d="M103.4,131.28h18.435v-1.153a1.958,1.958,0,0,0-1.953-1.951l-14.531,0a1.958,1.958,0,0,0-1.951,1.953m18.437,4.234H103.4l0,6.309a1.957,1.957,0,0,0,1.953,1.951l14.531,0a1.958,1.958,0,0,0,1.952-1.953" transform="translate(-80.845 -104.386)" fill="#006a4d"/>
  </g>
</svg>
