<svg xmlns="http://www.w3.org/2000/svg" width="32" height="30" viewBox="0 0 32 30">
  <g id="noun_bank_account_1716197" data-name="noun_bank account_1716197" transform="translate(-2 -4)">
    <path id="Path_2178" data-name="Path 2178" d="M8,19.069a1.072,1.072,0,0,0,1.069,1.069V18A1.072,1.072,0,0,0,8,19.069Z" transform="translate(-2.793 -6.499)" fill="#006a4d"/>
    <path id="Path_2179" data-name="Path 2179" d="M12,26.138A1.069,1.069,0,0,0,12,24Z" transform="translate(-4.655 -9.284)" fill="#006a4d"/>
    <path id="Path_2180" data-name="Path 2180" d="M26.586,16.293l1.069.962V8.276a1.072,1.072,0,0,0-1.069-1.069H9.857l-.8-2.459A1.093,1.093,0,0,0,8.04,4H3.069A1.072,1.072,0,0,0,2,5.069v17.1a1.072,1.072,0,0,0,1.069,1.069H18.676Zm-17.1-.534A2.144,2.144,0,0,1,7.345,17.9v1.069H6.276V17.9a2.144,2.144,0,0,1-2.138-2.138H5.207a1.072,1.072,0,0,0,1.069,1.069V14.689a2.138,2.138,0,0,1,0-4.276V9.345H7.345v1.069a2.144,2.144,0,0,1,2.138,2.138H8.414a1.072,1.072,0,0,0-1.069-1.069v2.138A2.144,2.144,0,0,1,9.483,15.758Z" fill="#006a4d"/>
    <path id="Path_2181" data-name="Path 2181" d="M47.9,40.55H46.827V36.274h2.138L41.483,29.7,34,36.274h2.138V40.55H35.069v2.138H34v3.207H48.965V42.688H47.9Zm-9.621-4.276h2.138V40.55H38.276Zm6.414,4.276H42.552V36.274h2.138Z" transform="translate(-14.965 -11.895)" fill="#006a4d"/>
  </g>
</svg>
