<svg xmlns="http://www.w3.org/2000/svg" width="40" height="20" viewBox="0 0 40 20">
  <g id="noun_dollar_417222" transform="translate(-0.7 -25.4)">
    <path id="Path_2109" data-name="Path 2109" d="M31.045,29.051A1.732,1.732,0,0,0,29.3,30.8v.446a2.828,2.828,0,0,1-2.312-2.759,3.573,3.573,0,0,1,.081-.69H6.38a2.143,2.143,0,0,1,.041.527,2.848,2.848,0,0,1-2.84,2.84,1.975,1.975,0,0,1-.487-.041v8.56a1.975,1.975,0,0,1,.487-.041,2.848,2.848,0,0,1,2.84,2.84,2.313,2.313,0,0,1-.041.527H23.7v2.11a.69.69,0,0,0,.041.284H3.5A2.8,2.8,0,0,1,.7,42.6V28.2a2.8,2.8,0,0,1,2.8-2.8H30.112a2.8,2.8,0,0,1,2.8,2.8v.852H31.045ZM34.737,43.7H31.045a.277.277,0,0,0-.284.284v1.1a.277.277,0,0,0,.284.284h3.692a.277.277,0,0,0,.284-.284v-1.1A.277.277,0,0,0,34.737,43.7Zm0-2.191H31.045a.277.277,0,0,0-.284.284v1.1a.277.277,0,0,0,.284.284h3.692a.277.277,0,0,0,.284-.284v-1.1A.277.277,0,0,0,34.737,41.505Zm0-2.191H31.045a.277.277,0,0,0-.284.284v1.055a.277.277,0,0,0,.284.284h3.692a.277.277,0,0,0,.284-.284v-1.1A.271.271,0,0,0,34.737,39.315Zm0-2.191H31.045a.277.277,0,0,0-.284.284v1.1a.277.277,0,0,0,.284.284h3.692a.277.277,0,0,0,.284-.284v-1.1A.277.277,0,0,0,34.737,37.124Zm0-2.191H31.045a.277.277,0,0,0-.284.284v1.1a.277.277,0,0,0,.284.284h3.692a.277.277,0,0,0,.284-.284v-1.1A.277.277,0,0,0,34.737,34.933Zm0-2.231H31.045a.277.277,0,0,0-.284.284v1.1a.277.277,0,0,0,.284.284h3.692a.277.277,0,0,0,.284-.284v-1.1A.277.277,0,0,0,34.737,32.7Zm0-2.191H31.045a.277.277,0,0,0-.284.284v1.1a.277.277,0,0,0,.284.284h3.692a.277.277,0,0,0,.284-.284V30.8A.277.277,0,0,0,34.737,30.512ZM40.416,43.7H36.724a.277.277,0,0,0-.284.284v1.1a.277.277,0,0,0,.284.284h3.692a.277.277,0,0,0,.284-.284v-1.1A.342.342,0,0,0,40.416,43.7Zm0-2.191H36.724a.277.277,0,0,0-.284.284v1.1a.277.277,0,0,0,.284.284h3.692a.277.277,0,0,0,.284-.284v-1.1A.342.342,0,0,0,40.416,41.505Zm0-2.191H36.724a.277.277,0,0,0-.284.284v1.055a.277.277,0,0,0,.284.284h3.692a.277.277,0,0,0,.284-.284v-1.1A.348.348,0,0,0,40.416,39.315ZM29.1,43.7H25.406a.277.277,0,0,0-.284.284v1.1a.277.277,0,0,0,.284.284H29.1a.277.277,0,0,0,.284-.284v-1.1A.277.277,0,0,0,29.1,43.7Zm0-2.191H25.406a.277.277,0,0,0-.284.284v1.1a.277.277,0,0,0,.284.284H29.1a.277.277,0,0,0,.284-.284v-1.1A.277.277,0,0,0,29.1,41.505Zm0-2.191H25.406a.277.277,0,0,0-.284.284v1.055a.277.277,0,0,0,.284.284H29.1a.277.277,0,0,0,.284-.284v-1.1A.271.271,0,0,0,29.1,39.315Zm0-2.191H25.406a.277.277,0,0,0-.284.284v1.1a.277.277,0,0,0,.284.284H29.1a.277.277,0,0,0,.284-.284v-1.1A.277.277,0,0,0,29.1,37.124Zm0-2.191H25.406a.277.277,0,0,0-.284.284v1.1a.277.277,0,0,0,.284.284H29.1a.277.277,0,0,0,.284-.284v-1.1A.277.277,0,0,0,29.1,34.933Zm-7.383,3.286.041.325a.766.766,0,0,1-.73.933H20.7a.779.779,0,0,0-.73.568l-.081.284a.816.816,0,0,1-1.055.527l-.284-.122a.8.8,0,0,0-.892.2l-.2.284a.768.768,0,0,1-1.176,0l-.2-.243a.833.833,0,0,0-.892-.2L14.9,40.9a.8.8,0,0,1-1.1-.527l-.081-.284a.779.779,0,0,0-.73-.568h-.325a.812.812,0,0,1-.771-.933l.041-.325a.886.886,0,0,0-.406-.852l-.284-.162a.822.822,0,0,1-.284-1.176l.162-.243a.791.791,0,0,0,0-.933l-.162-.2a.812.812,0,0,1,.243-1.176l.284-.162A.851.851,0,0,0,11.9,32.5l-.041-.325a.766.766,0,0,1,.73-.933h.325a.779.779,0,0,0,.73-.568l.081-.284a.816.816,0,0,1,1.055-.527l.284.122a.8.8,0,0,0,.892-.2l.2-.243a.768.768,0,0,1,1.176,0l.2.243a.833.833,0,0,0,.892.2l.284-.122a.8.8,0,0,1,1.1.527l.081.284a.779.779,0,0,0,.73.568h.325a.811.811,0,0,1,.771.933l-.041.325a.886.886,0,0,0,.406.852l.284.162a.822.822,0,0,1,.284,1.176l-.162.243a.791.791,0,0,0,0,.933l.2.243a.812.812,0,0,1-.243,1.176l-.284.162A.686.686,0,0,0,21.714,38.219Zm-2.84-4.179a1.869,1.869,0,0,0-.406-1.055,1.8,1.8,0,0,0-1.014-.568v-.73a.175.175,0,0,0-.162-.162h-.609a.175.175,0,0,0-.162.162v.73a2.27,2.27,0,0,0-1.1.487,1.441,1.441,0,0,0-.446,1.136,1.464,1.464,0,0,0,.446,1.136,5.192,5.192,0,0,0,1.379.771,2.292,2.292,0,0,1,.568.365.647.647,0,0,1,.162.487.554.554,0,0,1-.162.446.505.505,0,0,1-.446.162.879.879,0,0,1-.568-.2.8.8,0,0,1-.2-.568.186.186,0,0,0-.2-.162H14.98a.192.192,0,0,0-.2.2,1.668,1.668,0,0,0,.487,1.176,2.21,2.21,0,0,0,1.258.527v.649a.175.175,0,0,0,.162.162h.609a.175.175,0,0,0,.162-.162v-.69a1.851,1.851,0,0,0,.974-.487,1.527,1.527,0,0,0,.446-1.136,1.464,1.464,0,0,0-.446-1.136,5.13,5.13,0,0,0-1.379-.811,1.709,1.709,0,0,1-.568-.365.851.851,0,0,1-.162-.446.729.729,0,0,1,.122-.446.505.505,0,0,1,.446-.162.581.581,0,0,1,.446.2.87.87,0,0,1,.162.487.186.186,0,0,0,.2.162h.974C18.793,34.244,18.874,34.163,18.874,34.041ZM6.217,35.38a1.7,1.7,0,1,0,1.7-1.7A1.714,1.714,0,0,0,6.217,35.38Z" transform="translate(0 0)" fill="#006a4d"/>
  </g>
</svg>
