<svg xmlns="http://www.w3.org/2000/svg" width="24" height="30" viewBox="0 0 24 30">
  <g id="noun_payment_739233" transform="translate(-11.2 -1.5)">
    <path id="Path_2205" data-name="Path 2205" d="M35.169,10.085l-.031-.125a1.175,1.175,0,0,0-.281-.468L27.325,1.875a1.122,1.122,0,0,0-.312-.219l-.406-.125L14.7,1.5A3.492,3.492,0,0,0,11.2,5V28a3.492,3.492,0,0,0,3.5,3.5h17A3.492,3.492,0,0,0,35.2,28V10.4ZM27.388,5.527l3.938,4H28.388a.973.973,0,0,1-.969-.968V5.527ZM19.95,16.734a3.958,3.958,0,0,1-5.938-3.4A3.959,3.959,0,0,1,17.95,9.4a4.166,4.166,0,0,1,1.875.468,4.128,4.128,0,0,1,2.125-.624,4.011,4.011,0,1,1-2,7.492ZM31.825,27.629h-4.75V26.474h4.75Zm0-3.059H22.95V23.415h8.875Zm0-2.934H22.95V20.48h8.875Z" fill="#006a4d"/>
    <path id="Path_2206" data-name="Path 2206" d="M28.2,31.794a2.609,2.609,0,0,0-.689-.094,2.412,2.412,0,1,0,0,4.824,2.163,2.163,0,0,0,.783-.125,3.972,3.972,0,0,1-.094-4.6Z" transform="translate(-9.558 -20.778)" fill="#006a4d"/>
    <path id="Path_2207" data-name="Path 2207" d="M43.594,32.538v-.157a.282.282,0,1,0-.564,0v.157a1.072,1.072,0,0,0-.783,1,1.035,1.035,0,0,0,.783,1v.971a1.534,1.534,0,0,1-.47-.376.267.267,0,1,0-.407.345,2.009,2.009,0,0,0,.877.6v.157a.282.282,0,0,0,.564,0V36.14a1.072,1.072,0,0,0,.783-1,1.043,1.043,0,0,0-.783-1v-1a1.693,1.693,0,0,1,.47.313.266.266,0,1,0,.376-.376A1.517,1.517,0,0,0,43.594,32.538Zm-.532,1.441a.509.509,0,0,1,0-.877Zm.783,1.128a.5.5,0,0,1-.251.439v-.877A.5.5,0,0,1,43.844,35.107Z" transform="translate(-21.237 -21.053)" fill="#006a4d"/>
  </g>
</svg>
