<svg xmlns="http://www.w3.org/2000/svg" width="34.726" height="30" viewBox="0 0 34.726 30">
  <g id="noun_driving_license_85638" data-name="noun_driving license_85638" transform="translate(-5 -17.188)">
    <path id="Path_2173" data-name="Path 2173" d="M5,17.188V43.425H27.813l.217-1.543H6.543V18.731H38.182v23.15h-.7l.337,1.543h1.905V17.188H5Zm7.584,2.689A2.708,2.708,0,0,0,11.8,20l-.012.012h-.012A2.911,2.911,0,0,0,10,23.18c-.006.007-.007.017-.012.024a1.125,1.125,0,0,0-.1.965,1.5,1.5,0,0,0,.53.941,3.024,3.024,0,0,0,.507,1.049l.012.012c.017.024.03.037.048.06a4.566,4.566,0,0,1,0,.651,6.2,6.2,0,0,1-1.4.41,2.259,2.259,0,0,0-1.857,1.6.643.643,0,0,0,.084.6c.47.68,2.939.832,4.932.832s4.474-.152,4.943-.832a.64.64,0,0,0,.073-.6,2.259,2.259,0,0,0-1.857-1.6,6.137,6.137,0,0,1-1.4-.41,5.734,5.734,0,0,1,.012-.663c.012-.014.024-.021.036-.036v-.012a3.048,3.048,0,0,0,.519-1.061,1.5,1.5,0,0,0,.531-.941,1.127,1.127,0,0,0-.1-.965c-.005-.007-.007-.017-.012-.024a2.917,2.917,0,0,0-1.785-3.171h-.012V20a2.727,2.727,0,0,0-.759-.121H12.91c-.058,0-.1.008-.157.012s-.114-.012-.169-.012Zm5.92.326v.772h18.52V20.2Zm0,1.929V22.9h18.52v-.772Zm-6.9.06a4.924,4.924,0,0,0,2.3,1.29s-.276-.516-.507-.977a3.5,3.5,0,0,0,1.387.977,3.045,3.045,0,0,0,.2-.338c-.011.109-.025.22-.048.338a.218.218,0,0,1,.073-.012c.091,0,.215.081.1.591-.152.655-.409.687-.47.687h-.012a2.319,2.319,0,0,1-.591,1.278c0,.005-.012.007-.012.012a1.812,1.812,0,0,1-1.338.651,1.886,1.886,0,0,1-1.218-.639s0-.008,0-.012a2.4,2.4,0,0,1-.615-1.29h-.012c-.061,0-.318-.032-.47-.687-.118-.509.005-.591.1-.591a.357.357,0,0,1,.084.012h.012l.2.639S10.64,22.33,11.608,22.192Zm6.9,1.869v.772h18.52v-.772Zm0,1.929v.772h18.52V25.99Zm-4.5.711a1.439,1.439,0,0,0,.048.422c.048.129.337.272.675.386a2.872,2.872,0,0,1-3.943,0c.338-.115.615-.257.663-.386a1.4,1.4,0,0,0,.048-.41,2.109,2.109,0,0,0,1.169.458c.026,0,.058,0,.084,0a2.05,2.05,0,0,0,1.254-.47Zm4.5,1.218v.772h10.8v-.772Zm12.9.169a.911.911,0,0,0-.217.012c-.536.1-.894.733-1.375,1.025-.017.011-.042.015-.06.024-.49.265-1.259.2-1.664.627a1.163,1.163,0,0,0-.253.507,7.913,7.913,0,0,1-.289,1.194,1.359,1.359,0,0,1-.061.132c-.247.4-.695.74-.856,1.158a.854.854,0,0,0-.06.193,2.106,2.106,0,0,0,.35,1.122,1.645,1.645,0,0,1,.217,1.158,2.136,2.136,0,0,0,.072,1.193.781.781,0,0,0,.085.133,4.73,4.73,0,0,0,1.109.711,1.651,1.651,0,0,1,.253.193,1.609,1.609,0,0,1,.217.241c.289.41.482.961.892,1.158.521.249,1.224-.1,1.784-.024s1.143.574,1.7.482h.012c.444-.081.761-.538,1.134-.856a1.742,1.742,0,0,1,.3-.205c.49-.265,1.259-.2,1.664-.627s.29-1.186.531-1.688a1.976,1.976,0,0,1,.253-.386c.294-.357.681-.679.736-1.1.075-.566-.463-1.139-.567-1.7s.2-1.265-.073-1.772c-.264-.489-1.021-.632-1.447-1.037s-.607-1.158-1.109-1.4a.949.949,0,0,0-.289-.072,5.767,5.767,0,0,0-1.146.1,1.673,1.673,0,0,1-.338,0c-.5-.066-1.011-.466-1.507-.494Zm-12.9,1.76v.772h8.488v-.772Zm13.721.145a3.758,3.758,0,0,1,1.025.145A3.64,3.64,0,0,1,34.4,30.7a3.691,3.691,0,0,1,0,6.016,3.64,3.64,0,0,1-1.146.567,3.745,3.745,0,0,1-1.025.145,3.654,3.654,0,0,1-.434-.024,3.756,3.756,0,0,1-2.8-1.845,3.556,3.556,0,0,1-.157-.325,3.692,3.692,0,0,1-.313-1.158,4.159,4.159,0,0,1,.108-1.315,3.694,3.694,0,0,1,.531-1.158,3.753,3.753,0,0,1,1.628-1.326,3.711,3.711,0,0,1,1-.265,3.577,3.577,0,0,1,.434-.024ZM18.5,31.777v.772h7.331v-.772Zm-7.934.47A1.13,1.13,0,0,0,9.437,33l-.808,2.122a1.162,1.162,0,0,0-.9,1.158v2.7h.8v.856a.755.755,0,1,0,1.507,0v-.856h5.4v.856a.76.76,0,1,0,1.519,0v-.856h.8v-2.7a1.162,1.162,0,0,0-.9-1.158L16.02,33a1.124,1.124,0,0,0-1.133-.747H10.571Zm0,.772H14.9c.27,0,.392.172.47.41l.615,1.676h-6.5l.615-1.676c.075-.237.2-.406.47-.41Zm7.934.687v.772h7.331v-.772Zm0,1.929v.772h7.717v-.772Zm-9.2.277a.718.718,0,1,1-.7.723A.711.711,0,0,1,9.3,35.913Zm6.861,0a.718.718,0,0,1,0,1.435.718.718,0,0,1,0-1.435ZM18.5,37.565v.772h8.874v-.772Zm17.954,1.169a5.307,5.307,0,0,1-.518.121,2.279,2.279,0,0,0-.555.169,1.179,1.179,0,0,0-.193.145l-.085.531-.518,3.63c.167.048.341.106.47.144l2.195.639c.208.062.348-.053.3-.265l-.844-3.894c-.046-.213-.112-.571-.157-.784l-.084-.362Zm-7.669.434-.036.205v.084L28.6,40.531l-.024.193c-.031.215-.09.568-.121.784l-.663,4.7c-.031.215.1.318.3.229l2.194-.989a.685.685,0,0,1,.663.1l1.833,1.567c.165.141.319.071.35-.145l.675-4.7c.031-.215.077-.556.109-.772l.144-.965.061-.434.012-.072c-.043.036-.086.075-.133.108a1.556,1.556,0,0,1-.639.289,1.411,1.411,0,0,1-.253.024,1.8,1.8,0,0,1-.47-.073,4.283,4.283,0,0,1-.591-.229,2.268,2.268,0,0,0-.567-.193.682.682,0,0,0-.108-.012,3.582,3.582,0,0,0-.495.048,4.01,4.01,0,0,1-.639.073c-.064,0-.133-.007-.193-.012a1.475,1.475,0,0,1-.506-.133,1.359,1.359,0,0,1-.277-.181,1.878,1.878,0,0,1-.338-.362c-.046-.064-.091-.14-.133-.205ZM18.5,39.494v.772h9.26v-.772Z" fill="#01815e"/>
  </g>
</svg>
