<svg xmlns="http://www.w3.org/2000/svg" width="17.999" height="18" viewBox="0 0 17.999 18">
  <g id="Иконка_глобус_" data-name="Иконка (глобус)" transform="translate(-0.016 0.002)">
    <g id="Group_631" data-name="Group 631" transform="translate(0.016 -0.002)">
      <path id="Path_2236" data-name="Path 2236" d="M16.352,3.8a.15.15,0,0,0,0-.017c-.022-.032-.05-.06-.073-.091q-.252-.343-.534-.661c-.051-.058-.1-.115-.156-.172q-.29-.311-.608-.592c-.039-.035-.076-.071-.115-.1a9.013,9.013,0,0,0-1.707-1.152L13.082.976A8.943,8.943,0,0,0,12.246.6c-.064-.023-.123-.045-.184-.064Q11.682.4,11.29.3c-.077-.021-.154-.042-.233-.06C10.8.18,10.543.134,10.28.1,10.2.085,10.122.07,10.041.06A8.454,8.454,0,0,0,8,.06c-.08.01-.159.025-.239.037C7.5.134,7.24.18,6.986.239,6.907.257,6.83.279,6.753.3q-.394.1-.772.24L5.8.6a8.937,8.937,0,0,0-.836.372l-.075.037A9.015,9.015,0,0,0,3.174,2.165c-.039.034-.076.07-.115.1a8.364,8.364,0,0,0-.608.592c-.053.057-.1.114-.156.172q-.282.317-.534.661c-.023.031-.051.059-.073.091A.146.146,0,0,0,1.68,3.8a8.944,8.944,0,0,0,0,10.39.14.14,0,0,0,.008.017c.022.032.05.06.073.091q.251.343.534.661c.051.058.1.115.156.172q.291.311.608.592c.039.035.076.071.115.1A9.013,9.013,0,0,0,4.88,16.984l.075.037a8.943,8.943,0,0,0,.836.372c.064.023.123.045.184.064q.38.137.772.24c.077.021.154.042.233.06.257.06.514.105.777.143.08.012.158.027.239.037a8.454,8.454,0,0,0,2.04,0c.08-.01.159-.025.239-.037.263-.037.523-.083.777-.143.078-.018.156-.039.233-.06q.395-.1.772-.24l.184-.064a8.937,8.937,0,0,0,.836-.372l.075-.037a9.014,9.014,0,0,0,1.707-1.152c.039-.034.076-.07.115-.1a8.187,8.187,0,0,0,.608-.592c.053-.057.1-.114.156-.172q.282-.318.534-.661c.023-.031.051-.059.073-.091a.146.146,0,0,0,.008-.017A8.944,8.944,0,0,0,16.352,3.8ZM15.618,5.02A7.651,7.651,0,0,1,16.7,8.355H12.851a12,12,0,0,0-.36-2.269A11.555,11.555,0,0,0,15.618,5.02ZM10.655,1.459c.036.008.071.02.107.028a6.92,6.92,0,0,1,.682.193c.034.012.068.025.1.037q.332.116.653.257l.111.054q.307.146.6.316l.129.078q.278.17.54.363c.045.033.09.064.134.1A5.867,5.867,0,0,1,14.2,3.3c.041.037.084.074.124.113.165.156.322.322.473.493.019.022.04.043.059.064a10.786,10.786,0,0,1-2.743.881,16.351,16.351,0,0,0-1.731-3.435C10.476,1.431,10.567,1.44,10.655,1.459ZM6.47,8.355A10.729,10.729,0,0,1,6.824,6.3a18.426,18.426,0,0,0,2.2.129,18.468,18.468,0,0,0,2.2-.132,10.71,10.71,0,0,1,.352,2.061Zm5.1,1.286a10.729,10.729,0,0,1-.354,2.058,18.82,18.82,0,0,0-4.393,0A10.712,10.712,0,0,1,6.47,9.641ZM9.019,1.7a15.531,15.531,0,0,1,1.792,3.344,17.02,17.02,0,0,1-1.792.1,17.148,17.148,0,0,1-1.79-.1A15.654,15.654,0,0,1,9.019,1.7ZM3.238,3.9c.151-.171.309-.336.473-.493.041-.039.083-.075.124-.113q.238-.217.493-.413c.044-.034.089-.064.134-.1q.262-.193.54-.363l.129-.078q.293-.171.6-.316l.111-.054q.32-.145.653-.257c.033-.012.064-.026.1-.037.223-.075.45-.136.682-.193.036-.008.071-.02.107-.028.088-.019.179-.028.269-.044A16.352,16.352,0,0,0,5.922,4.851,10.786,10.786,0,0,1,3.179,3.97C3.2,3.947,3.219,3.927,3.238,3.9ZM2.42,5.02A11.553,11.553,0,0,0,5.547,6.086a12,12,0,0,0-.359,2.269H1.335A7.652,7.652,0,0,1,2.42,5.02Zm0,7.957A7.651,7.651,0,0,1,1.335,9.641H5.187a12,12,0,0,0,.36,2.269A11.553,11.553,0,0,0,2.42,12.977Zm4.963,3.561c-.036-.008-.071-.02-.107-.028a6.919,6.919,0,0,1-.682-.193c-.034-.012-.068-.025-.1-.037q-.332-.116-.653-.257l-.111-.054q-.307-.146-.6-.316L5,15.574q-.278-.17-.54-.363c-.045-.033-.09-.064-.134-.1a5.867,5.867,0,0,1-.493-.413c-.041-.037-.084-.074-.124-.113-.165-.156-.322-.322-.473-.493-.019-.022-.04-.043-.059-.064a10.786,10.786,0,0,1,2.743-.881,16.351,16.351,0,0,0,1.731,3.435C7.563,16.566,7.471,16.557,7.383,16.537ZM9.019,16.3a15.531,15.531,0,0,1-1.792-3.344,16.741,16.741,0,0,1,3.583,0h0A15.65,15.65,0,0,1,9.019,16.3Zm5.781-2.2c-.151.171-.309.336-.473.493-.041.039-.083.075-.124.113q-.238.217-.493.413l-.134.1q-.262.193-.54.363l-.129.078q-.292.17-.6.316l-.111.054q-.32.145-.653.257c-.033.012-.064.026-.1.037-.223.075-.45.136-.682.193-.036.008-.071.02-.107.028-.088.019-.179.028-.269.044a16.349,16.349,0,0,0,1.731-3.435,10.786,10.786,0,0,1,2.743.881C14.84,14.049,14.819,14.07,14.8,14.092Zm.818-1.116a11.553,11.553,0,0,0-3.126-1.066,12,12,0,0,0,.359-2.269H16.7A7.653,7.653,0,0,1,15.618,12.977Z" transform="translate(-0.016 0.002)" fill="#fff"/>
    </g>
  </g>
</svg>
