<svg xmlns="http://www.w3.org/2000/svg" width="16" height="18" viewBox="0 0 16 18">
  <g id="Иконка_локация_" data-name="Иконка (локация)" transform="translate(-31)">
    <g id="Group_636" data-name="Group 636" transform="translate(31)">
      <g id="Group_635" data-name="Group 635">
        <path id="Path_2250" data-name="Path 2250" d="M42.039,11.893c1.937-3.006,1.694-2.631,1.749-2.709a5.713,5.713,0,0,0,1.078-3.348,5.867,5.867,0,0,0-11.733,0,5.744,5.744,0,0,0,1.109,3.391l1.718,2.666C34.123,12.172,31,13,31,14.836c0,.668.441,1.619,2.541,2.361A17.009,17.009,0,0,0,39,18c3.841,0,8-1.071,8-3.164C47,13,43.88,12.173,42.039,11.893ZM35.133,8.647l-.018-.027A4.7,4.7,0,0,1,34.2,5.836a4.8,4.8,0,0,1,9.6,0,4.672,4.672,0,0,1-.876,2.731c-.051.067.217-.345-3.924,6.079ZM39,16.945c-4.2,0-6.933-1.219-6.933-2.109,0-.6,1.407-1.582,4.524-1.965l1.959,3.04a.537.537,0,0,0,.9,0l1.959-3.04c3.118.383,4.524,1.367,4.524,1.965C45.933,15.718,43.22,16.945,39,16.945Z" transform="translate(-31)" fill="#fff"/>
      </g>
    </g>
    <g id="Group_638" data-name="Group 638" transform="translate(36.363 3.199)">
      <g id="Group_637" data-name="Group 637">
        <path id="Path_2251" data-name="Path 2251" d="M183.637,91a2.637,2.637,0,1,0,2.637,2.637A2.64,2.64,0,0,0,183.637,91Zm0,4.219a1.582,1.582,0,1,1,1.582-1.582A1.584,1.584,0,0,1,183.637,95.219Z" transform="translate(-181 -91)" fill="#fff"/>
      </g>
    </g>
  </g>
</svg>
