<svg xmlns="http://www.w3.org/2000/svg" width="30" height="30" viewBox="0 0 30 30">
	<g id="noun_Domestic_Electricity_1874808" data-name="noun_Domestic Electricity_1874808" transform="translate(-0.5 -0.475)">
		<g id="Group_577" data-name="Group 577" transform="translate(0.5 0.475)">
			<g id="Group_570" data-name="Group 570" transform="translate(16.088 5.668)">
				<path id="Path_2058" data-name="Path 2058" d="M36.713,12.8A1.321,1.321,0,0,0,35.4,14.16a1.336,1.336,0,1,0,1.313-1.36Z" transform="translate(-35.4 -12.8)" fill="#01815e" />
			</g>
			<g id="Group_571" data-name="Group 571" transform="translate(4.439)">
				<path id="Path_2059" data-name="Path 2059" d="M36.392,11.645,24.061.58a.492.492,0,0,0-.61,0L11.121,11.645a.529.529,0,0,0-.141.516.451.451,0,0,0,.422.281H36.017a.475.475,0,0,0,.422-.281A.367.367,0,0,0,36.392,11.645ZM23.733,9.911a2.261,2.261,0,0,1-2.251-2.3,2.292,2.292,0,0,1,2.251-2.3,2.332,2.332,0,0,1,2.3,2.3A2.3,2.3,0,0,1,23.733,9.911Z" transform="translate(-10.962 -0.475)" fill="#01815e" />
			</g>
			<g id="Group_572" data-name="Group 572" transform="translate(0.281 0.105)">
				<path id="Path_2060" data-name="Path 2060" d="M3.21,7.217H9.493a2.063,2.063,0,1,0,0-4.126,1.3,1.3,0,0,0-.422.047A2.061,2.061,0,0,0,7.054,1.5a1.758,1.758,0,0,0-.516.047,2.048,2.048,0,0,0-3.7,1.172v.328A2.025,2.025,0,0,0,1.1,5.06,2.172,2.172,0,0,0,3.21,7.217Z" transform="translate(-1.1 -0.7)" fill="#01815e" />
			</g>
			<g id="Group_573" data-name="Group 573" transform="translate(16.131 26.484)">
				<rect id="Rectangle_2479" data-name="Rectangle 2479" width="3.001" height="1.266" fill="#01815e" />
			</g>
			<g id="Group_574" data-name="Group 574" transform="translate(13.966 16.373)">
				<path id="Path_2061" data-name="Path 2061" d="M30.9,40.129a3.708,3.708,0,0,0,1.031,2.532,3.911,3.911,0,0,1,1.125,3.048h3a3.9,3.9,0,0,1,1.078-3A3.634,3.634,0,1,0,30.9,40.129Zm3.938-1.688-.469,1.125,1.078.281a.63.63,0,0,1,.328.281.651.651,0,0,1,0,.422l-.891,1.641a.492.492,0,0,1-.422.234.423.423,0,0,1-.234-.047.474.474,0,0,1-.188-.656l.61-1.125-1.031-.281a.841.841,0,0,1-.328-.234.514.514,0,0,1,0-.375l.7-1.641a.465.465,0,0,1,.61-.234A.43.43,0,0,1,34.838,38.441Z" transform="translate(-30.9 -36.536)" fill="#01815e" />
			</g>
			<g id="Group_575" data-name="Group 575" transform="translate(0 12.371)">
				<path id="Path_2062" data-name="Path 2062" d="M.5,42.535A.466.466,0,0,0,.961,43H2.068v2.11a.461.461,0,1,0,.922,0V43H4.7v2.11a.461.461,0,1,0,.922,0V43H7.28V45.16a.439.439,0,0,0,.461.469H28.172a.439.439,0,0,0,.461-.469V28H7.234V42.066H5.573V41.5a.461.461,0,1,0-.922,0v.563H2.99V41.5a.461.461,0,1,0-.922,0v.563H.961A.439.439,0,0,0,.5,42.535Zm13.144-3.61-.692.422a.463.463,0,0,1-.646-.188.479.479,0,0,1,.184-.656l.692-.422a.463.463,0,0,1,.646.188A.479.479,0,0,1,13.644,38.924Zm10.331.234a.483.483,0,0,1-.415.234.41.41,0,0,1-.231-.047l-.692-.422a.479.479,0,0,1-.184-.61.506.506,0,0,1,.646-.188l.692.422A.436.436,0,0,1,23.975,39.159Zm.415-3.423a.439.439,0,0,1-.461.469h-.738a.469.469,0,0,1,0-.938h.738A.466.466,0,0,1,24.39,35.736Zm-1.753-3.141.692-.422a.463.463,0,0,1,.646.188.479.479,0,0,1-.184.656l-.692.422a.41.41,0,0,1-.231.047.548.548,0,0,1-.415-.234A.509.509,0,0,1,22.638,32.595ZM20.47,30.719l.415-.7a.506.506,0,0,1,.646-.188.524.524,0,0,1,.184.656l-.415.7a.483.483,0,0,1-.415.234.41.41,0,0,1-.231-.047A.479.479,0,0,1,20.47,30.719Zm.784,8.111c-1.107,1.125-.738,2.579-.784,4.595a.883.883,0,0,1-.876.891h-3a.883.883,0,0,1-.876-.891V41.6a3.3,3.3,0,0,0-.83-2.813A4.463,4.463,0,0,1,13.644,35.6a4.476,4.476,0,0,1,4.981-4.5A4.562,4.562,0,0,1,21.254,38.831ZM17.7,29.407a.461.461,0,1,1,.922,0v.844a.461.461,0,1,1-.922,0Zm-2.906.422a.463.463,0,0,1,.646.188l.415.7a.479.479,0,0,1-.184.656.41.41,0,0,1-.231.047.548.548,0,0,1-.415-.234l-.415-.7A.479.479,0,0,1,14.8,29.829Zm-2.491,2.485a.506.506,0,0,1,.646-.188l.692.422a.524.524,0,0,1,.184.656.483.483,0,0,1-.415.234.41.41,0,0,1-.231-.047l-.692-.422A.479.479,0,0,1,12.307,32.313Zm-.415,2.954h.83a.469.469,0,0,1,0,.938h-.83a.469.469,0,0,1,0-.938Z" transform="translate(-0.5 -28)" fill="#01815e" />
			</g>
			<g id="Group_576" data-name="Group 576" transform="translate(22.695 2.544)">
				<path id="Path_2063" data-name="Path 2063" d="M54.495,6.369a.481.481,0,0,0-.469-.469H50.369a.443.443,0,0,0-.469.469v.469l4.548,4.079Z" transform="translate(-49.9 -5.9)" fill="#01815e" />
			</g>
		</g>
	</g>
</svg>
