<svg xmlns="http://www.w3.org/2000/svg" width="55.02" height="80" viewBox="0 0 55.02 80">
  <path id="Иконка_поиск_терминалов_" data-name="Иконка (поиск терминалов)" d="M23.808,80A139.675,139.675,0,0,1,9.7,79.158a43.927,43.927,0,0,1-7.848-1.5c-2.282-.731-3.439-1.609-3.439-2.611,0-1.63,3-2.912,8.905-3.812A127.382,127.382,0,0,1,21.338,70.1,7.255,7.255,0,0,1,22.4,72.376a1.267,1.267,0,0,0,1.411,1.188,1.267,1.267,0,0,0,1.411-1.188,4.912,4.912,0,0,1,.586-1.348c.141-.274.3-.585.472-.929A128.531,128.531,0,0,1,40.4,71.238c5.919.9,8.92,2.181,8.92,3.812,0,1-1.158,1.881-3.441,2.611a43.992,43.992,0,0,1-7.86,1.5A141.137,141.137,0,0,1,23.808,80Zm.059-7.178a.475.475,0,0,1-.529-.445c0-1.457-3.505-6.569-7.943-13.041C7.335,47.582-3.7,31.485-3.7,23.168-3.7,10.393,8.638,0,23.808,0A30.114,30.114,0,0,1,43.293,6.794a23.262,23.262,0,0,1,5.874,7.365,19.985,19.985,0,0,1,2.149,9.008c0,8.317-10.989,24.414-19.013,36.167C27.886,65.807,24.4,70.92,24.4,72.376A.475.475,0,0,1,23.866,72.822Zm-4.532-43.59v5.577a.532.532,0,0,0,.529.533H36.41a.532.532,0,0,0,.529-.533V29.232ZM10.678,13.258V35.342h8.2l0-.007a.556.556,0,0,1-.029-.068.152.152,0,0,1-.014-.03,1.267,1.267,0,0,1-.058-.183c0-.006,0-.012,0-.017a.2.2,0,0,0,0-.025,1.132,1.132,0,0,1-.021-.2v-.471H17.113V30.955h1.634v-.716H17.113V26.852h1.634v-.716H17.113V22.75h3.359v1.1h1.7v-1.1h3.361v1.1h1.369V13.258h-1.68v2.877H12.355V13.258Zm8.656,13.518v1.865h17.6V26.776Zm.529-2.336a.53.53,0,0,0-.529.53v1.213h17.6V24.97a.53.53,0,0,0-.529-.53ZM32.638,22.5v.565H35V22.5Zm-1.611,0v.565h1.055V22.5ZM28.536,19.4v1.129H29.1V19.4Zm0-2.259v1.129H29.1V17.136Zm0-2.259v1.13H29.1v-1.13ZM14.186,8.235,12.943,9.484v6.059h11.7V9.484L23.4,8.235,21.861,9.78,20.327,8.235,18.79,9.78,17.257,8.235,15.72,9.78Zm20.075,26.2a1.855,1.855,0,0,1-1.12-.375,1.864,1.864,0,0,1-1.12.375,1.924,1.924,0,0,1,0-3.847,1.867,1.867,0,0,1,1.12.373,1.87,1.87,0,0,1,1.12-.373,1.924,1.924,0,0,1,0,3.847Zm0-3.255a1.267,1.267,0,0,0-.7.21,1.948,1.948,0,0,1,0,2.244,1.268,1.268,0,0,0,.7.211,1.332,1.332,0,0,0,0-2.664Zm-2.239,0a1.332,1.332,0,1,0,1.305,1.332A1.32,1.32,0,0,0,32.022,31.183Zm-6.383,3.255h-.76v-.592h.76v.591Zm-1.451,0H20.7v-.592h3.491v.591Zm-8.783-.1H12.047V30.952h3.359v3.386Zm8.685-1.606H23.4v-.592h.69v.591Zm-1.205,0H20.7v-.592h2.188v.591Zm-7.48-2.5H12.047V26.852h3.359v3.382Zm0-4.1H12.047V22.75h3.359v3.385Zm9.589-4.8H12.589V17.692H24.995v3.645ZM23.309,14.6H17.053v-.592h6.256V14.6Zm-7.342,0H13.926v-.592h2.041V14.6Zm7.342-1.633H20.472v-.592h2.837v.591Zm-3.765,0H13.926v-.591h5.619v.59Zm3.765-1.633H17.053v-.592h6.256v.591Zm-7.024,0H13.926v-.592h2.359v.591Z" transform="translate(3.703)" fill="#004e36"/>
</svg>
