<svg xmlns="http://www.w3.org/2000/svg" width="18" height="18" viewBox="0 0 18 18">
  <path id="Иконка_войти_" data-name="Иконка (войти)" d="M18,2.813V15.188A2.816,2.816,0,0,1,15.187,18H8.121a2.816,2.816,0,0,1-2.813-2.812V13.781a.7.7,0,0,1,1.406,0v1.406a1.408,1.408,0,0,0,1.406,1.406h7.066a1.408,1.408,0,0,0,1.406-1.406V2.813a1.408,1.408,0,0,0-1.406-1.406H8.121A1.408,1.408,0,0,0,6.714,2.813V4.219a.7.7,0,1,1-1.406,0V2.813A2.816,2.816,0,0,1,8.121,0h7.066A2.816,2.816,0,0,1,18,2.813ZM7.942,10.821a.7.7,0,0,0,.99,1l1.587-1.575a1.752,1.752,0,0,0,0-2.49L8.932,6.18a.7.7,0,1,0-.99,1L9.069,8.3H.7A.7.7,0,0,0,.7,9.7H9.069Zm0,0" transform="translate(0)" fill="#fff"/>
</svg>
