<svg xmlns="http://www.w3.org/2000/svg" width="37" height="40" viewBox="0 0 37 40">
  <g id="copy" transform="translate(-1)">
    <path id="Path_2672" data-name="Path 2672" d="M30.167,37.333h-20A4.171,4.171,0,0,1,6,33.167v-25A4.171,4.171,0,0,1,10.167,4h20a4.171,4.171,0,0,1,4.167,4.167v25A4.171,4.171,0,0,1,30.167,37.333Zm-20-31.667a2.5,2.5,0,0,0-2.5,2.5v25a2.5,2.5,0,0,0,2.5,2.5h20a2.5,2.5,0,0,0,2.5-2.5v-25a2.5,2.5,0,0,0-2.5-2.5Z" transform="translate(3.667 2.667)" fill="#01815e"/>
    <path id="Path_2673" data-name="Path 2673" d="M6.833,35H5.167A4.171,4.171,0,0,1,1,30.833V4.167A4.171,4.171,0,0,1,5.167,0h20a4.171,4.171,0,0,1,4.167,4.167.833.833,0,0,1-1.667,0,2.5,2.5,0,0,0-2.5-2.5h-20a2.5,2.5,0,0,0-2.5,2.5V30.833a2.5,2.5,0,0,0,2.5,2.5H6.833a.833.833,0,0,1,0,1.667Z" transform="translate(0)" fill="#01815e"/>
    <path id="Path_2674" data-name="Path 2674" d="M24.167,17.667H10.833a.833.833,0,1,1,0-1.667H24.167a.833.833,0,1,1,0,1.667Z" transform="translate(6.231 10.667)" fill="#01815e"/>
    <path id="Path_2675" data-name="Path 2675" d="M24.167,21.667H10.833a.833.833,0,1,1,0-1.667H24.167a.833.833,0,1,1,0,1.667Z" transform="translate(6.231 13.333)" fill="#01815e"/>
    <path id="Path_2676" data-name="Path 2676" d="M24.167,13.667H10.833a.833.833,0,1,1,0-1.667H24.167a.833.833,0,1,1,0,1.667Z" transform="translate(6.231 8)" fill="#01815e"/>
    <path id="Path_2677" data-name="Path 2677" d="M24.167,9.667H10.833a.833.833,0,1,1,0-1.667H24.167a.833.833,0,1,1,0,1.667Z" transform="translate(6.231 5.333)" fill="#01815e"/>
  </g>
</svg>
