<svg xmlns="http://www.w3.org/2000/svg" width="29.999" height="30" viewBox="0 0 29.999 30">
	<path id="Union_10" data-name="Union 10" d="M4561.759-4431.89l.3-.54,1.593.89-.3.539Zm5.946.125,1.078-.631.313.533-1.078.632Zm-6.991-2.133H4559.4v-5.836h4.48l2.376,2.8.007,0c.028.064,1.008.915.18,1.7a1.021,1.021,0,0,1-1.441-.039l-2.129-2.257-.452.426,2.13,2.254a1.639,1.639,0,0,0,2.315.068,1.634,1.634,0,0,0,.123-2.248l-.077-.092c.052-.015,5.753-1.7,6.142-1.815a.03.03,0,0,0,.013-.006,1.385,1.385,0,0,1,1.82.784,1.381,1.381,0,0,1-.6,1.7l-8.967,5.162Zm.138,1.515.3-.541.559.312-.3.54Zm8.528-.344,3.048-1.789.313.533-3.049,1.788Zm-16.38.262v-9.074h3.072v9.074Zm.882-2.376a.653.653,0,0,0,.653.653.654.654,0,0,0,.654-.653.655.655,0,0,0-.654-.654A.654.654,0,0,0,4553.883-4434.841Zm2.809,1.357v-7.035h1.944v7.035Zm5.784-7v-.619h.735v.619Zm-2.679,0v-.619h2.136v.619Zm8.01-1.319-2.124-4.572v4.523h-1.6v-8h1.656l2.365,5.329,2.136-5.329h1.668v8h-1.6v-4.477l-1.932,4.525Zm7.476-.048v-6.551h-2.389v-1.453h6.4v1.453h-2.375v6.551Zm-16.187,0v-6.551h-2.389v-1.453h6.4v1.453h-2.376v6.551Zm-5.383-.417v-.619h2.574v.619Zm26-6.852v-.618h2.573v.618Zm.214-1.339v-9.072H4583v9.072Zm.882-6.7a.653.653,0,0,0,.653.652.652.652,0,0,0,.653-.652.654.654,0,0,0-.653-.654A.655.655,0,0,0,4580.81-4457.151Zm-6.744,6.252v-.619h2.136v.619Zm-1.278,0v-.619h.734v.619Zm4.577-.576v-7.036h1.944v7.036Zm-5.241-.786-2.377-2.8-.007,0c-.028-.065-1.008-.916-.18-1.7a1.022,1.022,0,0,1,1.441.04l2.129,2.257.452-.427-2.13-2.253a1.638,1.638,0,0,0-2.314-.068,1.635,1.635,0,0,0-.125,2.248l.078.093c-3.179.938-5.017,1.482-6.292,1.861a1.387,1.387,0,0,1-1.684-.826,1.381,1.381,0,0,1,.6-1.7l8.967-5.162,4.6,2.6h1.317v5.836Zm-8.866-5.755,3.048-1.788.312.534-3.048,1.788Zm11.028-1.37.3-.541.56.312-.3.541Zm-1.94-1.074.3-.54,1.594.889-.3.54Zm-5.442.326,1.075-.633.314.534-1.078.632Z" transform="translate(-4553 4461)" fill="#fff" />
</svg>
