<svg xmlns="http://www.w3.org/2000/svg" width="18" height="18" viewBox="0 0 18 18">
  <g id="Иконка_контакты_" data-name="Иконка (контакты)" transform="translate(-0.344 0)">
    <g id="Group_632" data-name="Group 632" transform="translate(0.344 0)">
      <path id="Path_2237" data-name="Path 2237" d="M14.579,37.515a1.774,1.774,0,0,0-1.286-.589,1.835,1.835,0,0,0-1.3.585l-1.2,1.2c-.1-.053-.2-.1-.293-.152-.137-.068-.266-.133-.377-.2a13.061,13.061,0,0,1-3.131-2.849,7.7,7.7,0,0,1-1.027-1.618c.312-.285.6-.581.883-.866.107-.106.213-.217.32-.323a1.741,1.741,0,0,0,0-2.629L6.125,29.032c-.118-.118-.24-.239-.354-.361-.228-.236-.468-.479-.715-.707a1.8,1.8,0,0,0-1.275-.558,1.865,1.865,0,0,0-1.294.558l-.008.008-1.294,1.3A2.778,2.778,0,0,0,.36,31.042a6.651,6.651,0,0,0,.487,2.819,16.352,16.352,0,0,0,2.911,4.848A17.9,17.9,0,0,0,9.72,43.37a9.3,9.3,0,0,0,3.348.988c.08,0,.164.008.24.008a2.869,2.869,0,0,0,2.2-.942c0-.008.011-.011.015-.019a8.643,8.643,0,0,1,.666-.688c.164-.156.331-.319.495-.49a1.894,1.894,0,0,0,.575-1.314,1.824,1.824,0,0,0-.586-1.3Zm1.362,4s0,0,0,0c-.148.16-.3.3-.464.463a10,10,0,0,0-.734.76,1.836,1.836,0,0,1-1.431.6c-.057,0-.118,0-.175,0a8.262,8.262,0,0,1-2.968-.889,16.9,16.9,0,0,1-5.616-4.392A15.418,15.418,0,0,1,1.814,33.5a5.417,5.417,0,0,1-.426-2.378A1.743,1.743,0,0,1,1.913,30l1.3-1.3a.866.866,0,0,1,.578-.27.814.814,0,0,1,.556.266l.011.011c.232.217.453.441.685.68.118.122.24.243.361.369L6.44,30.795a.724.724,0,0,1,0,1.178c-.11.11-.217.22-.327.327-.32.327-.624.631-.955.927-.008.008-.015.011-.019.019a.774.774,0,0,0-.2.862l.011.034a8.324,8.324,0,0,0,1.229,2l0,0a13.958,13.958,0,0,0,3.379,3.07,5.2,5.2,0,0,0,.468.255c.137.068.266.133.377.2.015.008.03.019.046.027a.826.826,0,0,0,.377.095.814.814,0,0,0,.578-.262l1.3-1.3a.861.861,0,0,1,.575-.285.775.775,0,0,1,.548.277l.008.008,2.1,2.093A.75.75,0,0,1,15.941,41.516Z" transform="translate(-0.344 -26.365)" fill="#fff"/>
      <path id="Path_2238" data-name="Path 2238" d="M245.366,86.943a4.889,4.889,0,0,1,3.981,3.981.51.51,0,0,0,.505.425.678.678,0,0,0,.087-.008.513.513,0,0,0,.422-.593,5.912,5.912,0,0,0-4.817-4.817.516.516,0,0,0-.593.418A.507.507,0,0,0,245.366,86.943Z" transform="translate(-235.632 -82.661)" fill="#fff"/>
      <path id="Path_2239" data-name="Path 2239" d="M257.3,7.94A9.735,9.735,0,0,0,249.371.008a.512.512,0,1,0-.167,1.011,8.7,8.7,0,0,1,7.089,7.089.51.51,0,0,0,.505.425.679.679,0,0,0,.087-.008A.5.5,0,0,0,257.3,7.94Z" transform="translate(-239.311 0)" fill="#fff"/>
    </g>
  </g>
</svg>
