<svg xmlns="http://www.w3.org/2000/svg" width="74.074" height="80" viewBox="0 0 74.074 80">
  <g id="Иконка_терминалы_" data-name="Иконка (терминалы)" transform="translate(-953 -3957.9)">
    <path id="Path_2138" data-name="Path 2138" d="M20.517,87.25H52.729a5.061,5.061,0,0,0,5.05-5.071V39.568a3.492,3.492,0,0,1,3.494-3.49,1.625,1.625,0,0,0,1.612-1.619V12.321a5.061,5.061,0,0,0-5.05-5.071H15.42a5.061,5.061,0,0,0-5.05,5.071V34.459a1.625,1.625,0,0,0,1.612,1.619,3.492,3.492,0,0,1,3.494,3.49V82.179a5.061,5.061,0,0,0,5.041,5.071Zm34.028-9.3a.934.934,0,0,1-.932.936H19.632a.934.934,0,0,1-.932-.936V43.835a.934.934,0,0,1,.932-.936H53.6a.934.934,0,0,1,.932.936V55.194h0ZM15.308,33.608V13.135a.934.934,0,0,1,.932-.936H57.005a.934.934,0,0,1,.932.936V33.608a.934.934,0,0,1-.932.936H16.24A.934.934,0,0,1,15.308,33.608Z" transform="translate(942.63 3950.65)" fill="#004f3a"/>
    <rect id="Rectangle_2521" data-name="Rectangle 2521" width="37.658" height="39.541" transform="translate(960.183 3991.299)" fill="#004f3a"/>
    <rect id="Rectangle_2512" data-name="Rectangle 2512" width="39.305" height="18.716" transform="translate(959.873 3964.764)" fill="#fff"/>
    <rect id="Rectangle_2513" data-name="Rectangle 2513" width="9.556" height="9.556" transform="translate(963.299 3995.39)" fill="#fff"/>
    <rect id="Rectangle_2514" data-name="Rectangle 2514" width="9.556" height="9.556" transform="translate(974.565 3995.39)" fill="#fff"/>
    <rect id="Rectangle_2515" data-name="Rectangle 2515" width="9.556" height="9.556" transform="translate(985.908 3995.39)" fill="#fff"/>
    <rect id="Rectangle_2516" data-name="Rectangle 2516" width="9.556" height="9.556" transform="translate(963.299 4006.758)" fill="#fff"/>
    <rect id="Rectangle_2595" data-name="Rectangle 2595" width="9.556" height="9.556" transform="translate(963.299 4018.126)" fill="#fff"/>
    <rect id="Rectangle_2517" data-name="Rectangle 2517" width="9.556" height="9.556" transform="translate(974.565 4006.758)" fill="#fff"/>
    <rect id="Rectangle_2594" data-name="Rectangle 2594" width="9.556" height="9.556" transform="translate(974.565 4018.126)" fill="#fff"/>
    <path id="Path_2139" data-name="Path 2139" d="M45.62,70.007V80.5h9.556V59.51H45.62Z" transform="translate(940.288 3947.097)" fill="#fff"/>
    <path id="Path_2140" data-name="Path 2140" d="M73.372,21.83h-4.98V35.481A3.521,3.521,0,0,1,64.9,38.993a1.582,1.582,0,0,0-1.139.471,1.6,1.6,0,0,0-.49,1.158V81.734h10.1Z" transform="translate(939.112 3949.303)" fill="#004f3a"/>
    <path id="Path_2141" data-name="Path 2141" d="M89.107,78.73V24.813a3,3,0,0,0-3-3H80.69V81.733H86.1a3,3,0,0,0,3-3Z" transform="translate(937.967 3949.304)" fill="#004f3a"/>
    <rect id="Rectangle_2520" data-name="Rectangle 2520" width="2.532" height="59.904" transform="translate(1014.242 3971.133)" fill="#004f3a"/>
    <path id="Path_2142" data-name="Path 2142" d="M14.55,89.64h1.309a6.948,6.948,0,0,1-2.212-5.1V41.664a1.629,1.629,0,0,0-1.629-1.629,3.587,3.587,0,0,1-1.648-.4V85.46A4.18,4.18,0,0,0,14.55,89.64Z" transform="translate(942.63 3948.261)" fill="#004f3a"/>
  </g>
</svg>
